<?xml version="1.0" standalone="no"?>
<!DOCTYPE svg PUBLIC "-//W3C//DTD SVG 20010904//EN"
 "http://www.w3.org/TR/2001/REC-SVG-20010904/DTD/svg10.dtd">
<svg version="1.0" xmlns="http://www.w3.org/2000/svg"
 width="1068.000000pt" height="1068.000000pt" viewBox="0 0 1068.000000 1068.000000"
 preserveAspectRatio="xMidYMid meet">
<metadata>
Created by potrace 1.11, written by Peter Selinger 2001-2013
</metadata>
<g transform="translate(0.000000,1068.000000) scale(0.100000,-0.100000)"
fill="#0d566e" stroke="none">
<path d="M3838 6550 c-152 -24 -333 -92 -483 -180 -103 -61 -287 -235 -352
-333 -47 -71 -122 -214 -155 -293 -44 -109 -78 -293 -78 -429 0 -99 23 -257
51 -350 29 -98 109 -262 173 -359 98 -148 277 -308 434 -388 378 -195 763
-201 1147 -18 284 134 532 422 629 728 76 242 75 549 -4 784 -37 109 -71 178
-147 293 -174 263 -424 437 -758 525 -91 25 -356 36 -457 20z"/>
<path d="M6413 6530 c-185 -40 -357 -114 -482 -206 -86 -63 -204 -165 -198
-170 2 -3 33 9 68 25 35 17 105 42 154 57 82 25 105 28 255 28 184 1 239 -9
387 -71 111 -47 182 -94 281 -188 156 -148 253 -338 288 -570 15 -94 16 -123
5 -210 -22 -181 -113 -402 -214 -520 -83 -98 -207 -195 -312 -245 -161 -78
-239 -95 -435 -94 -150 0 -173 3 -255 28 -49 15 -115 38 -145 52 l-54 25 24
-27 c30 -33 195 -156 259 -193 70 -41 218 -98 312 -121 659 -156 1302 192
1508 815 119 360 59 763 -160 1082 -48 69 -188 212 -271 275 -135 102 -270
166 -458 215 -81 21 -123 26 -280 29 -157 3 -199 1 -277 -16z"/>
</g>
</svg>
